# Blender v2.80 (sub 75) OBJ File: 'grass.blend'
# www.blender.org
mtllib grass.mtl
o Plane.001
v 0.999982 -0.001087 -0.007268
v 1.000008 1.163216 0.001203
v -1.000008 -0.001087 -0.001203
v -0.999982 1.163216 0.007268
v 0.007285 -0.004149 1.003000
v -0.007285 1.160198 0.996921
v 0.007285 0.001930 -0.996921
v -0.007285 1.166278 -1.003000
vt 1.000306 -0.006719
vt 1.000095 0.790310
vt 0.007599 0.790140
vt 0.007811 -0.006889
vt 0.980384 -0.001073
vt 0.988124 0.744787
vt 0.011773 0.749120
vt 0.004033 0.003261
vn 0.0030 -0.0073 1.0000
vn -0.9999 -0.0125 -0.0000
usemtl Material.001
s off
f 1/1/1 2/2/1 4/3/1 3/4/1
f 5/5/2 6/6/2 8/7/2 7/8/2
